/* XPM */
static char * blocki_xpm[] = {
"15 15 3 1",
" 	s None	c None",
".	c black",
"X	c #616561",
"       .       ",
"               ",
"....... .......",
"               ",
"    X   ...... ",
"    XX  ...... ",
" XXXXXX        ",
"    XX  ....   ",
"    X   ....   ",
"               ",
"....... .......",
"               ",
"   .... ...    ",
"               ",
"       .       "};
