/* XPM */
static char * delete_xpm[] = {
"15 15 3 1",
" 	s None	c None",
".	c black",
"X	s 32	c #82077DF77DF7",
"               ",
"               ",
"  ...          ",
"   ...      .  ",
"    ...   X.   ",
"     ..X ..    ",
"      ....     ",
"       ..      ",
"     X....     ",
"    ...  ..    ",
"   ...    .X   ",
"  ...      .   ",
"  ..        .  ",
"  .            ",
"               "};
