/* XPM */
static char * find_xpm[] = {
"15 15 7 1",
" 	c #7288ab",
".	c white",
"X	s 32	c #82077DF77DF7",
"o	c black",
"O	c gray51",
"+	c gray65",
"@	c #DF7DDF7DDF7D",
" ..............",
"X..ooo...ooo...",
"O..ooo...ooo...",
"+..ooo...ooo...",
"@.ooooooooooo..",
"o.oooo.o.oooo..",
"..oooo.o.oooo..",
"..ooooooooooo..",
"..oooo...oooo..",
".+ooooo.oooooo.",
".+ooooo.oooooo.",
".+ooooo.oooooo.",
".+ooooo.oooooo.",
".+...oo.oooooo.",
"..............."};
