/* XPM */
static char * redo_xpm[] = {
"15 15 5 1",
" 	s None	c None",
".	c black",
"X	c #9E9E9A9A9E9E",
"o	c #82827D7D7D7D",
"O	c #616165656161",
"               ",
"               ",
"    ....       ",
"   .    .      ",
"  .      .     ",
"  .       .  . ",
"  .        ... ",
"  .        ... ",
"   .      .... ",
"               ",
"               ",
"               ",
" XX oo OOO ....",
" XX oo OOO ....",
"               "};
