/* XPM */
static char * save_xpm[] = {
"15 15 8 1",
" 	s None	c None",
".	c #82077DF77DF7",
"X	c black",
"o	c #9E799A699E79",
"O	c white",
"+	c #CB2BCB2BCB2B",
"@	c #DF7DDF7DDF7D",
"#	c #618565956185",
"               ",
" .X.........o..",
" .XOOOOOOOOO+..",
" .XOO++++@OO+..",
" .XOOOOOOOOO+..",
" .XOOo++@OOO+..",
" .XOOOOOOOOO+..",
" .XOOOOOOOOO+..",
" ..++++++++++..",
" ..............",
" ...XXXXXXXX...",
" ..X@@@@@@@@+..",
" ..X@@#..o+@+..",
" ..X@@#..o+@+..",
"  .X@@@@@@@@+. "};
