/* XPM */
static char * search_xpm[] = {
"15 15 6 1",
" 	s None	c None",
".	c black",
"X	c white",
"o	c #DF7DDF7DDF7D",
"O	c gray65",
"+	c gray51",
"               ",
" ......        ",
" .XXXXo.       ",
" .XXXX o.      ",
" .XXXX  o.     ",
" .XXXX ....    ",
" .XXXXXX...    ",
" .XXXXX.O O.   ",
" .XXXX.O  +O.  ",
" .XXXX.   + .  ",
" .XXXX.O  +O.  ",
" .XXXXX.O O.O  ",
" .XXXXXX...O.  ",
" .XXXXXXXX.  . ",
" ..........   ."};
