/* XPM */
static char * undo_xpm[] = {
"15 15 5 1",
" 	s None	c None",
".	c black",
"X	c #616165656161",
"o	c #82827D7D7D7D",
"O	c #9E9E9A9A9E9E",
"               ",
"               ",
"       ....    ",
"      .    .   ",
"     .      .  ",
" .  .       .  ",
" ...        .  ",
" ...        .  ",
" ....      .   ",
"               ",
"               ",
"               ",
".... XXX oo OO ",
".... XXX oo OO ",
"               "};
